<svg version="1.1" xmlns="http://www.w3.org/2000/svg" xmlnsXlink="http://www.w3.org/1999/xlink" x="0px" y="0px" viewBox="0 0 4463.9 1994.6" xmlSpace="preserve" >
      <image display="block" width="1999" height="885" xlink:href="/V-1.jpg" transform="matrix(2.232 0 0 2.2538 0 2.552)"></image>
      <rect x="3629.3" y="1869.6" class="st1" width="834.6" height="125" id="1" class=""></rect>
      <polygon class="st1" points="3094.3,1994.6 3625.9,1994.6 3622.6,1560.2 3094.3,1560.2 	" id="2" class=""></polygon>
      <rect x="2666.3" y="1893" class="st1" width="424.6" height="101.6" id="3"></rect>
      <polygon class="st1" points="2532.3,1994.6 2662.9,1994.6 2652,1560.2 2532.3,1560.2 	" id="4"></polygon>
      <path class="st1" d="M2528.9,1994.6v-441l-115.6,1.3c-14,0-28.4-19.9-30.7-24.7c-4.7-10.1-13.4-18.8-30-23.3
      	c-22.8-6.2-40.4-2.2-44.7,2.7c-4.5,5.1-13.5,9.3-20.7,12.7c-5.6,2.6-13.7,8.4-20.7,16.3c-7,8.1-21.9,9.6-22.7,9.7h-6h-320.6v367.7
      	l56.6-1c0.5,0,9.1-1.3,15,7c3.5,4.8,4.7,6,4,14c-1.7,20.9-7.8,36.6-2.7,58.7H2528.9z" id="5"></path>
      <path class="st1" d="M1516.3,1994.6h468l0,0c-5.3-22.7-1.7-12-0.3-33c0.5-7.7,4.4-22.5,1.7-26.3c-4.9-6.8-10.5-9.3-10.7-9.3
      	l-456.5,0L1516.3,1994.6z" id="6"></path>
      <polygon class="st1" points="925.3,1994.6 1506.3,1993.2 1508,1854.6 928,1851.6 	" id="7"></polygon>
      <polygon class="st1" points="722,1994.6 918.6,1994.6 919.6,1729.6 722,1726.9 	" id="8"></polygon>
      <polygon class="st1" points="334.9,1994.6 712.6,1994.6 713.3,1553.9 334.9,1551.9 	" id="9"></polygon>
      <polygon class="st1" points="3.3,1994.6 310.3,1994.6 307.6,1549.9 2.1,1549.2 	" id="10"></polygon>
      <path class="st1" d="M1518,1917.3l396-1.4V1293h-120.7c-9.1,0-22.6,2-30.3,7.7c-8.5,6.2-17.9,9.3-29.8,13.3
      	c-5.3,1.8-11.4,3.8-18,6.3c-21.1,8-81.7,22.4-128.9,33.1c-32.3,7.3-52.1-5.6-69.9-18.7L1518,1917.3z" id="11"></path>
      <polygon class="st1" points="2666.3,1889.6 3090.9,1889.6 3088,1560.2 2666.3,1560.2 	" id="12"></polygon>
      <polygon class="st1" points="4361.8,1860.9 4463.9,1860.9 4463.9,1703.6 4361.8,1700.2 	" id="13"></polygon>
      <path class="st1" d="M3629.3,1860.9h729.1V1542h-206.1c-5.6,0-19,0.9-24,9.4c-3.7,6.4-5.2,17.5-6.1,24.9c-0.4,2.7-0.7,5-1,6.6
      	c-1.3,6.1-14.4,27.2-33.7,29.3c-12.5,1.4-17.6,5.8-23,10.6c-2.3,2-4.6,4-7.5,5.9c-6.3,4-15.4,4.3-22.2,0.7
      	c-6.5-3.4-10.2-9.9-10.4-18.3c-0.4-16.3-5.5-20.2-10.5-24c-0.7-0.6-1.5-1.1-2.2-1.7c-5.8-4.9-5.5-10.4-5.1-16.3
      	c0.2-3.8,0.5-8.2-0.8-13.2c-3.6-14.1-29.2-13.9-29.5-13.9l-347,0V1860.9z" id="14"></path>
      <path class="st1" d="M928.6,1844.2h581c0,0,7.4-522,5.3-525.1c-1.3-2-2.6-3.9-3.8-5.6c-9.5-13.4-32.6-16.4-66.9-8.7
      	c-31.7,7.1-71.7,5.5-99.6-4.1c-24.4-8.4-49.3-7.9-49.6-7.9l-359.5,0L928.6,1844.2z" id="15"></path>
      <polygon class="st1" points="722,1716.6 919.6,1720.2 921.3,1551.9 722,1552.9 	" id="16"></polygon>
      <rect x="4361.8" y="1542" class="st1" width="102.1" height="150.8" id="17"></rect>
      <path class="st1" d="M3976.6,1538.6c3.3,0,28.4,0.5,32.5,16.4c1.4,5.5,1.2,10.1,0.9,14.2c-0.3,5.8-0.5,9.7,3.9,13.5
      	c0.7,0.6,1.3,1.1,2,1.6c5.1,3.9,11.3,8.8,11.8,26.6c0.2,9.1,4.8,13.4,8.6,15.4c5.7,3,13.6,2.8,18.8-0.5c2.7-1.7,4.9-3.7,7.1-5.6
      	c5.6-4.9,11.3-9.9,24.9-11.4c17.7-1.9,29.7-21.8,30.8-26.7c0.3-1.4,0.6-3.7,0.9-6.3c1-7.7,2.5-19.2,6.6-26.2
      	c5.8-10,20.7-11.1,26.9-11.1h311.5V725.6h-834.6v812.9h347C3976.3,1538.6,3976.4,1538.6,3976.6,1538.6z" id="18"></path>
      <rect x="3360.3" y="1097.5" class="st1" width="265.6" height="453.4" id="19"></rect>
      <path class="st1" d="M2662.9,1548.2h694V465.6h-268c-3.1,1.5-26.6,12.8-40.6,22.4c-13.4,9.1-20.6,10.8-32.7,13.6
      	c-4.1,1-8.8,2.1-14.5,3.6c-8.4,2.3-18,7.3-28.1,12.5c-16,8.3-34.2,17.7-53.6,19.8c-5.8,0.6-12.2,0.2-18.9-1.3l-0.2,0
      	c-17.3-3.9-34.9-14.1-49-22.3c-7.6-4.4-14.2-8.2-19.5-10.4c-1.1-0.5-2.2-1-3.5-1.5c-21.6,4.2-41.5,7.4-53.6,8.3
      	c4.1,7.7,5.4,16.6,1.8,28.9c-4,13.7-1.5,22.8,0.5,30.1c1.8,6.4,3.3,12-0.1,18.2c-1.9,3.5-2.4,8.6-2.9,14.5
      	c-0.8,9.9-1.9,22.2-10.8,32.8c-2.5,3-5.7,5.9-9,8.9c-9.1,8.3-19.4,17.8-24.7,36c-5.6,19-7.9,24.8-24.8,33.5
      	c-6.1,3.1-11.9,4.6-17,5.8c-9,2.2-16.2,4-21.6,13.6L2662.9,1548.2z" id="20"></path>
      <path class="st1" d="M2525.3,1548.2h128.8l-1-958.5c-6.8-9.6-6.4-12-22.9-25.1c-4.6-3.6-9.7-7.5-15-11.6
      	c-28.1-21.6-100.1-106.3-81.4-77.5c1.4,2.2-8-5-8.5-5.8V1548.2z" id="21"></path>
      <path class="st1" d="M2330,1498.2c6.3,0,12.8-0.5,19.3,1.3c17.6,4.8,27.5,8.3,32.7,19.3c2.6,5.5,9.4,24.7,20.7,24.7H2520l1.3-242
      	l-603.9-0.7v242.7h323.9c1.1-0.1,17.3-6.6,23.2-13.4c6.4-7.3,15.1-14.3,22.3-17.7c6.7-3.2,12.3-4,16.4-8.8
      	C2307.1,1499.4,2313.5,1498.2,2330,1498.2z" id="22"></path>
      <polygon class="st1" points="721.6,1543.9 921.3,1542.6 918.6,794.2 721.6,792.2 	" id="23"></polygon>
      <polygon class="st1" points="334.9,1543.9 713.3,1543.9 715.3,1177.6 331.6,1177.6 	" id="24"></polygon>
      <polygon class="st1" points="3.3,1540.6 306.6,1541.6 307.6,1177.2 3.3,1177.6 	" id="25"></polygon>
      <path class="st1" d="M1477.3,1297.3c17.6,0,29.9,4.8,36.7,14.3c1.2,1.7,2.5,3.6,3.8,5.7c2.1,3.2,4.5,6.8,7.1,10.3
      	c10.8,14.3,27.4,29.8,60.6,22.3c47-10.6,107.5-25,128.4-32.9c6.7-2.5,12.8-4.6,18.1-6.3c11.6-3.8,20.7-6.9,28.8-12.8
      	c8.4-6.1,22.2-8.3,32.3-8.3H1914V299l-836.4,0.3c-1.6,5.7-13.5,32.9-38.5,48.5c-5.5,3.4-44,31-44,31c-25.3,13.4-44.5,24.8-70,25
      	l10.5,885.8h359.5c0.2,0,25.7-0.5,50.7,8.1c27.3,9.3,66.6,10.9,97.7,4C1456.4,1298.7,1467.6,1297.3,1477.3,1297.3z" id="26"></path>
      <path class="st1" d="M2373.6,802.7c0,0-37.4-0.3-41.5,8.9c-3.7,8.4-6.5,14.5-11.6,23.3c-3.6,6.2-10.3,11.2-18.1,13.2
      	c-7.6,2-15.3,0.9-21.8-2.9c-12.1-7.2-19.1-12.6-24.7-23.7c-1-2.1-6.2-6.6-7.3-8.7c-7.4-13.9-15.1-9.3-15.6-9.3l-13.7-4v496.7
      	l302-3.3l-1.4-490.2H2373.6z" id="27"></path>
      <path class="st1" d="M2356.9,792.6h164.7l-3.5-337.3c-8.1-15.7-4-24-10-41.9c-4.8-14.3-8.9-26.7-12.8-33.9
      	c-0.3-0.6-0.6-1.1-0.9-1.7c-6.1-5.3-8.2-6.1-12-7.7c-1.1-0.5-2.4-1-3.9-1.7c-0.2-0.1-0.4-0.2-0.6-0.3c-5.2-2.3-11.4-4.3-20.8-7.3
      	l-3.1-1c-25.6-8.2-29.3-12.1-53.4-37.1c-7-7.3-15.4-18.1-19.5-23.8l-301-3.4c-9.7,15.3-51,21.6-51,21.6c0,0-28.3,1.3-40-1.9
      	c-29.9-8-54.4-26-63.1-26.3l0.1,488.8l309.5,4c0.6,0,17.6,9.3,26,25c1.1,2.1-2,6.1-0.9,8.2c5.4,10.6,10.5,20.7,21.7,27.4
      	c5.7,3.4,12.5,4.3,19.2,2.6c6.8-1.8,12.8-6.1,16-11.6c5-8.7,7.8-14.7,11.4-23C2333.7,799.7,2344.9,792.6,2356.9,792.6
      	C2356.9,792.6,2356.9,792.6,2356.9,792.6z" id="28"></path>
      <polygon class="st1" points="1920.6,1296.2 2211.3,1296.2 2212,803.6 1921.3,808.2 	" id="29"></polygon>
      <path class="st1" d="M331.6,1164.6l383.7,0.3l-2.7-439.2c-5.3-3.1-19.6-6.2-25.5-12.6l-12.8-6.9c-10.1-10.9-19.7-35.1-19.7-35.2
      	c0,0-319.7-4.1-319.7-4.1L331.6,1164.6z" id="30"></path>
      <polygon class="st1" points="3.3,1162.9 308,1163.2 307.6,668.6 3.3,667 	" id="31"></polygon>
      <rect x="3360.3" y="725.6" class="st1" width="265.6" height="368.4" id="32"></rect>
      <path class="st1" d="M792.6,780.7h124.5l1.5-478.5l-179.5-3c-3.4,3-14.3,7.9-15,8.5v78.2l3,307.8c1.6,0.8,31.8,18.2,42,33.5
      	c6.3,9.4,14.7,15.7,16,23.5C785.7,753.9,791.1,775.8,792.6,780.7z" id="33"></path>
      <path class="st1" d="M772.1,780.7h13c-1.4-4.9-1-14.3-1.5-19.5c-0.3-2.4-11-19.7-11.4-22.1c-1.1-7.6-37.8-31.9-40.7-33.4
      	c-7.7-3.9-23.1-12.4-27.9-17c1.1,5.9-3.8,16.5-5,20.5c-1.8,6.1,6.3,6.5,14,12.5c5.6,2.5,22.8,10.6,28.5,14c0,0,11,5.4,20,17.5
      	c4,5.4,6.3,5.9,8.5,14.5C770.5,771.3,770.8,776.4,772.1,780.7z" id="34"></path>
      <path class="st1" d="M724.1,780.2l42,0.5c-1.2-4-4.4-17.2-8-22c-8.6-11.5-4.2-9.6-15-15.5c-3-1.7-15.1-5.2-19-7.5V780.2z" id="35"></path>
      <path class="st1" d="M2658.6,592.2v138.5c1.3-1.6,10.4-7.1,11.8-8.2c0.6-2.6-1.6-13.7,11-24.3c14.9-12.6,2-37-4.8-52
      	c-0.6-1.3-5.3-21.8-5.5-27C2667.8,610,2662.1,598.2,2658.6,592.2z" id="36"></path>
      <path class="st1" d="M4141.6,713l322.2-0.5v-470c-3.3,0.2-74-1.2-74-1.2c-0.6,1.1-25.5,37.6-48.5,43.8
      	c-4.1,1.1-46.3,14.2-87.5-12.2c-20.4-13.1-29.6-13.7-56.8-14.2c-5.6-0.1-43.2-1.5-58.2-2C4137.4,258.4,4141.6,713,4141.6,713z" id="37"></path>
      <path class="st1" d="M3361.4,711.7l755,2l-1.2-440.2c-6.5,2.7-13.7,2.1-18.1,2.2c-16,0.2-17.6,0.2-29.8-6.9
      	c-5.4-3.1-11.3-6.8-20-9.8c-23.1-8-18.2-11.5-28.8-26.8c-2.5-3.6-2.9-12.4-5-16.5c-2.7-1.4-12.8-10.9-15.2-12.6
      	c-5.5-3.9-4.3-1.4-18.2-13.4c-9.8,4.5-24.1,14.1-35.8,22.2c-20.8,14.5-46,7.1-67.2-0.5c-2-0.7-6.4-3.2-8.2-3.9
      	c-25.7-8.9-22.8-11.4-30.5-19.6c-3.4-3.6-3.9-10.7-9.8-16.6c-15.2-0.4-31.3-3.8-49.3-10.5c-0.4,2.2-0.6,4.6-0.9,7.3
      	c-1,10-2.4,23.6-12.2,48.1c-13.4,33.8-65.7,54.9-98.8,60.2c-4.7,0.9-8.6,1.3-11.9,1.2c-36.4,1.4-52.8,24.8-67.2,45.5
      	c-15.3,21.9-57.7,38.7-86.2,40.1c-25.7,1.3-60.7-3.1-81.2-15.7c-7.8-4.8-11.5-11.4-15.4-18.4c-3.9-7-8-14.3-16.8-20.9
      	c-7.3,6.3-16.8,13.5-28.6,20.6L3361.4,711.7z" id="38"></path>
      <path class="st1" d="M2704.6,455.2c-1.8,0-3.7,0.2-5.6,0.7c-9.3,2.2-16.2,5.2-19.7,23.2c-1.5,7.6-5.5,13.9-9.4,20.1
      	c-5.5,8.6-10.7,16.8-7.6,27.1c2.3,7.7,7.8,12.9,12.6,17.4c6.4,6,12.5,11.7,9,21.7c-5.8,16.4-5.4,29.2-4.5,41.8
      	c0.3,4.2,0.3,7.6,0.2,10.6c-0.1,7-0.1,12,4.2,21.9c0.5,1.1,1,2.2,1.6,3.5c7.1,15.8,20.4,45.2,3.6,59.5c-8.2,6.9-12,13.2-13.8,17.1
      	c3.8-1.8,7.8-2.8,12-3.9c5.2-1.3,10.5-2.6,16.3-5.5c15.8-8.1,17.7-12.8,23.2-31.5c5.6-19.1,16.7-29.3,25.7-37.5
      	c3.2-3,6.3-5.7,8.7-8.6c8.3-9.8,9.2-21,10.1-30.9c0.5-6.3,1-11.7,3.3-15.8c2.8-5,1.5-9.5-0.2-15.7c-2.1-7.7-4.7-17.3-0.5-32
      	c6.5-22.6-3.8-32.1-19.4-46.6c-1.7-1.5-3.4-3.1-5.1-4.7c-3.3-3.1-6.4-6.3-9.5-9.4C2727.7,465.7,2717.3,455.2,2704.6,455.2z" id="39"></path>
      <path class="st1" d="M671.6,694.6c0,0,15.8,11.9,21.5,14.7c-2.7-4.7,7.9-19.3,3-28.5c-5.4-8-11.4-19.8-9-29.5
      	c0-18,7.1-30.3,12-38.5c2.9-5,15.7-19.6,17.6-23v-44c-11.5,8-30.9,35.8-37.1,45.5c-24.3,38-16.5,72.3-16.5,72.3
      	C663.1,663.6,661.4,683.5,671.6,694.6z" id="40"></path>
      <path class="st1" d="M693.2,660.2l23.5,33.5l2-92c-1.3,2-15.4,16-18.1,20.5c-4.5,7.5-7.3,21.6-7.5,22.5
      	C693.2,644.7,693.2,667,693.2,660.2z" id="41"></path>
      <path class="st1" d="M3.3,655.9l653.6,0.3c7.3-41,6.9-43.2,20.7-71.5c1.9-3.9,15-22,15-29c-17.3-41.7-26.4-50-44.4-72
      	c-2.2-2.7-12.8-10.1-15-12c-19.3-16.8-32.6-50.4-34.5-78c-1.2-17.6-3.4-29.2-6.5-40c-2-6.8-3.2-15.2-5-24.5
      	c-12.1-4.3-17.6-13.7-23-24c-0.9-1.8-10.8-13.1-10.5-28.3c0.1-3.2,2.4-13.1,2.5-18c-1.3-1.1-25.8-22.8-35.5-36.6
      	c-36.2-0.3-39.6-5.4-53.5-18.6c-9-8.5-29.5-22.8-43.6-26.5c-6.9,4.2-41.8,28.2-44.4,29c-38.5,12.2-64.4,16.6-123,10.7
      	c-28.8-2.9-65.6-17.4-78-16.4c-5,0.4-28.8,1-33.5,1.1c-6.2,7.4-9.8,9.9-15,14.2c-3.9,3.2-14.6,21.2-33.5,29.5
      	c-9,3.9-14.6,7.5-22.5,7.5c-6.4,0-17.1,0.2-27,2.4c-10.4,2.4-17.3,3.4-23.5,6.1c-6.7,2.9-4.4,3.4-19.8,7.5V655.9z" id="42"></path>
      <path class="st1" d="M2484.8,331.3c4.4,5.9,2.8,11.2,1.4,15.9c-0.7,2.4-1.4,4.7-1.3,6.9c0.1,2.8,2.7,6.7,5.9,11.5
      	c2.3,3.5,4.9,7.4,7.5,12.1c4,7.4,8.2,19.9,13,34.4c7.1,21.2,15.1,45.3,25.3,61.4c18,28.5,52.7,55.2,80.6,76.6
      	c5.3,4.1,10.4,8,15,11.6c25.3,20,30.4,12.1,40,35.6c-0.5-21.4-2.6-13.1,3.3-30.2c2.8-7.9,1-17.4-5.3-23.3
      	c-5.1-4.8-8.8-8.2-11.3-16.8c-3-10.1,0.9-18.3,5.6-26.1c-10.9,2.8-33.9,3.7-61.3-7.9c-31.2-13.1-77-88.1-80.9-108.3
      	c-2.5-12.6-9.8-41.4-25.5-49.3C2492.8,334,2488.7,332.6,2484.8,331.3z" id="43"></path>
      <path class="st1" d="M666.1,491.7c18,16.1,17.7,19.5,32.5,51c4.3-6.8,10.1-2.4,14-10l-1.5-157c-19.7-0.8-34.9-12.9-48-24
      	c-2.1,2.9-12.7,17.3-15,20.5c-13.7,19.2-13.2,42.6-10.5,70c1.3,12.5,11.7,23,15,29C655.5,476.6,656.9,479.7,666.1,491.7z" id="44"></path>
      <path class="st1" d="M2914.2,534.5c1.6,0,3.3-0.1,4.9-0.2c18.8-2,36.6-11.3,52.4-19.5c10.3-5.3,19.9-10.4,28.7-12.8
      	c5.8-1.6,10.5-2.7,14.7-3.7c11.6-2.7,18.7-4.4,31.5-13.1c10.5-7.1,26-15.2,34.8-19.6h-62.7c-4.2,3.1-14.8,6-27,9.3
      	c-13.3,3.6-28.4,7.7-36.1,12.5c-3.5,2.2-7.4,4.2-11.6,5.9c-1.7,0.7-3.5,1.4-5.5,2c-14.2,6.1-14.6,14.6-15.1,22.9
      	C2922.9,525.9,2921.8,531.7,2914.2,534.5z" id="45"></path>
      <path class="st1" d="M2834.3,500.8c5.3,2.3,11.6,6,18.8,10.2c13.8,8.1,31.1,18.1,47.8,21.9c18.2,0,18.5-6,19-14.9
      	c0.3-6.3,0.7-13.6,7.5-19.8c-12.6,2.4-24.4,1.6-33.5-2.6c-2.9-1.3-6-2.7-9-4c-1-0.4-2.1-0.9-3.1-1.4
      	C2867,493.9,2850.3,497.6,2834.3,500.8z" id="46"></path>
      <path class="st1" d="M2734.4,467.9c2.5,2.4,4.9,4.9,7.4,7.4c3,3.1,6.1,6.2,9.4,9.3c1.7,1.6,3.4,3.2,5.1,4.7
      	c6.5,6,12.5,11.5,16.6,17.8c33.1-1.9,137.6-24.7,152.8-33.5c20.1-11.6,27.2-20.4,33.4-28.2c3.2-4,6.2-7.7,10.5-11.3
      	c8.6-7.1,20.6-4,33.4-0.7c6,1.5,12.1,3.1,17.9,3.6c-9.7-11-14.9-13.6-21.2-16.7c-3.3-1.7-7.1-3.5-11.9-6.9
      	c-15-10.5-18.4-11.8-35.7-15.7c-9.2-2.1-21.2-2.9-32.9-3.7c-10.1-0.7-20.6-1.4-29-2.9c-17.3-3.2-20.7-0.2-31.1,11.8
      	c-4.7,5.4-7,9.8-9,13.6c-2.4,4.6-4.6,8.7-10,12.3C2816.7,444,2766.8,466,2734.4,467.9z" id="47"></path>
      <path class="st1" d="M2554,437.9c0.4,0.7,0.9,1.3,1.3,2c18.3,26.5,36.3,44.8,49.3,50.3c25.6,10.8,48.5,10.6,59.1,7.8
      	c-34.6-12.4-66.9-35.5-86.2-53.7C2570.8,443.1,2562.1,440.7,2554,437.9z" id="48"></path>
      <path class="st1" d="M2887.2,489c2.7,1.2,5.4,2.4,8.1,3.6c10.8,5,26.1,4.8,41.9-0.5c0,0,0,0,0,0c1.6-0.7,3.4-1.4,5.4-2
      	c4-1.6,7.8-3.6,11.1-5.6c8.1-5,23.4-9.2,37-12.9c7.7-2.1,15-4.1,20.2-6h-67c-4.3,3.3-9.6,6.9-16.4,10.8
      	C2922.2,479.4,2906.7,484.1,2887.2,489z" id="49"></path>
      <path class="st1" d="M2583.3,445c19.9,17.9,51.3,39.6,84.6,50.8c3.4-5.4,6.8-11,8-17.4c0.9-4.8,2.1-8.7,3.6-11.9
      	c-23.2-2.4-32.7-8.1-51.9-23C2615.4,445.9,2599.9,446.5,2583.3,445z" id="50"></path>
      <path class="st1" d="M703.5,201.6c-13.4,0-33.1-1.2-48.3,12.4c-10,9-15.6,12.2-17.5,18.2c-1.1,3.4-3.9,12.1-6.5,16.6
      	c-4.7,7.9-18.2,17.2-33.5,20.4c-1.6,0.3-4.8,11.7-4,15.2c0.8,3.4,0.8,15-0.1,17.8c-2.1,6.7-1.4,15.7-0.2,22
      	c1.9,10.1,5.3,20.9,7.4,28c3.2,10.9,3.8,14,5,32c1.8,26.9,1.8,26.9,10.5,45.5c1.2,2.6,4.8,14.3,7.5,16.5c3,2.5,6.6,13,10,16
      	c-2.7-9.1,3.4-9,1-13.5c-3.3-6.1-2.7-5.4-4-18.5c-2.9-28.3,2.3-47.1,16.5-67c6.8-9.5,13.5-18,19-25.5c16.3-22.2,24.9-34.6,30-48.5
      	c2.9-7.9,9-15.4,10.5-23c2.1-10.5,6.9-20.3,8.5-28.3c1.6-7.8,8.2-8.9,6-15.7c-2.7-8.1-1-8.5-7.5-14.8
      	C710.6,204.6,707.5,201.6,703.5,201.6z" id="51"></path>
      <path class="st1" d="M2704.6,451.9c9.8,0,18.1,5.4,26.3,12.7c30.4-0.3,78.9-26.8,103.4-42.9c4.7-3.1,3.9-4.4,6.3-9
      	c2-3.8,6.5-8.8,11.5-14.5c10.7-12.3,16.1-18,35.1-14.5c4.6,0.8,11.5,0.5,16.9,1c0,0,36.3-0.1,55.6-41c8.6-18.3,13.4-33,21.9-43.8
      	c-8.9-0.7-25.8-3.3-33.7-2.9c-4.9,0.2-51.7,0.2-77.8,8.6c-35.7,11.4-63.9,16-109,1.8c-5.2-1.6-20.1-7-21.4-7.7
      	c-10.4,6-4.9,27.5-7.1,37.9c-4.5,20.7-11.5,28.8-22,40.9c-2.9,3.4-6.3,7.2-9.9,11.8c-10.3,12.9-13,15.5-16.2,18.5
      	c-1.9,1.8-3.9,3.8-7.9,8.3l0,0c-2.5,2.9-6,6-10.3,9V461c4.4,1,9.2,1.7,15,2.3c4-6.3,9.5-8.9,16.9-10.7
      	C2700.4,452.1,2702.5,451.9,2704.6,451.9z" id="52"></path>
      <path class="st1" d="M3050.8,462.2h306V330.8c-1.7,1-3.5,2-5.3,3c-23,12.5-57,7.9-68.2,6.4c-2.7-0.4-5.2-0.7-7.7-1
      	c-16-2.1-27.6-3.6-44.4-9.9c-7.7-2.9-15.5-6.1-23.8-9.6c-24.7-10.2-50.2-20.8-69.9-20.8c-10.8,0-17.8,0.8-26.6,1.8
      	c-15,1.7-36.1,4.1-83.9-0.8c-42.1-4.3-43.6,26.1-55.7,47.7c-10.4,18.3-21,37.1-46.5,43.2c10.1,0.7,20.2,1.6,28.2,3.4
      	c17.5,4,21.5,5.5,36.8,16.3c4.6,3.2,8.1,5,11.5,6.7c7.5,3.7,14,6.9,27.9,24.4c3.3,4.1,5.1,7.2,6.6,9.7
      	C3038.9,456.6,3040.2,458.8,3050.8,462.2z" id="53"></path>
      <path class="st1" d="M2947.9,462.2h93.8c-4.7-2.4-6.4-5.1-8.8-9.2c-1.4-2.4-3.2-5.4-6.3-9.3c-0.9-1.1-1.8-2.2-2.6-3.2
      	c-7.2-0.1-14.6-2.1-21.8-3.9c-11.9-3.1-23.1-6-30.4,0c-4,3.3-6.8,6.8-10,10.8C2958.2,451.9,2954.3,456.7,2947.9,462.2z" id="54"></path>
      <path class="st1" d="M2631.9,442.5c12.1,9.3,20.2,14.6,31,17.6v-31.7c-6.6,4.3-14.2,8.1-21.8,11.1c-1.7,0.7-3.5,1.3-5.3,1.9
      	C2634.5,441.8,2633.2,442.2,2631.9,442.5z" id="55"></path>
      <path class="st1" d="M2551.8,433.5L2551.8,433.5l0.3,0.1c10.7,4,23.6,7.3,30.6,8c20.5,1.9,39.4,0.7,52-3.4c1.7-0.6,3.4-1.2,5.1-1.8
      	c-23.7-2.9-27.1-11.3-30.4-19.5c-2.5-6.2-4.7-11.5-15.9-14.7c-2.3,0.2-4.8,0.5-7.3,0.8c-1.8,0.2-3.6,0.4-5.3,0.4
      	c-19,0-36.1-14.1-50.8-42c-0.3-0.6-0.6-1.2-0.9-1.6c-5.8-8-12.9-13.9-20.5-18.3c10,12.6,15.1,32.8,17,42.9
      	c1.8,9,12.2,29.2,25.2,48.8c0.3,0.1,0.6,0.2,0.9,0.3L2551.8,433.5z" id="56"></path>
      <path class="st1" d="M2601.3,401.6c7.1,3.8,9.2,9,11.2,14c3.4,8.3,4.8,13.2,32.2,15.1c6.2-2.8,25.4-18,25.4-18
      	c4.1-4.7,7.5-6.7,9.4-8.5c3.1-2.9,3.6-1.8,13.8-14.5c3.7-4.6,7.3-10.6,10.3-14c10.6-12.2,14.7-17.6,19-37.5
      	c2-9.2,3.7-16.3,5.5-23.1c-4.7,3.5-3.1-0.1-8.3-1.5c-8.1-2.2-17.4-7.6-26.5,6.6c-1.6,5.3-5.1,9.8-7.7,14.5
      	c-7.9,14.6-9.8,23.4-19.9,33.4c-1.2,1.2-3,3.3-5.1,5.8c-3.4,4-7.2,8.5-10.3,11.3c-16.2,14.7-29.1,15.4-45.3,16.2
      	C2603.8,401.4,2602.6,401.5,2601.3,401.6z" id="57"></path>
      <path class="st1" d="M925.1,346.7v50.5c24.6-0.2,37-8,62.5-21.5c0,0,37.2-26.5,42.8-30c24.5-15.2,25-23.9,34.2-38
      	c5.8-8.8,8.8-20.7,11.5-37.1c1.9-11.2,4-28.9,6.5-35.4c6.2-16.5,9.4-27.3,28-27.7c9.2-0.2,18.8-6,25.1-10.4
      	c-2.9-3.5-11.4-10.6-17.6-13.8c-8-4.1-21.9-6.7-32-2.6c-13.8,5.5-25.2,14.6-26.5,16c-9,9.3-14.5,29.8-19.5,48.6
      	c-3.4,12.7-16.5,43.4-16.5,43.4c-8.3,11.1-13.7,13.6-28.5,22c-2.1,1.2-24.2,18.7-29,21.2C966.1,331.9,940.6,346.5,925.1,346.7z" id="58"></path>
      <path class="st1" d="M2580.4,399.9c1.7,0,3.5-0.1,5.3-0.3c7.2-1,13.6-1.3,19.2-1.6c16.2-0.8,27.9-1.4,43.2-15.3
      	c2.9-2.7,6.8-7.3,10-11c1.9-2.2,20.2-31.4,21.4-32.7l-16.6-45.7c-4.4-7.8-9.6-16.2-15.7-25.3c-15.6-23.3-39.1-40.4-61.4-44.9
      	c-0.7-4.3-9.3-4.3-10.4-4.3c-29.6,1.9-29.6,37.5-31.2,47c-1.6,9.8-2.5,30.1-0.5,44c1.9,13.3,2.8,10.9,1.9,13.3
      	c3.4,4.3,10.1,12.6,13.6,15.8c8,7.4,15.5,14.3,15.5,30C2574.8,397.3,2579.5,399.7,2580.4,399.9z" id="59"></path>
      <path class="st1" d="M2526.6,347.7c0.2,0.4,6.1,11.5,6.3,12c12.7,23.9,13.1,22.5,28.7,25c-2.7-5,0-2.3,0-17.5
      	c0-14.2,3.4-18.1-4.7-25.5c-3.8-3.5-7.6-7-11.3-11.8c-2.4-0.4-12.7-10.5-19-20.4V347.7z" id="60"></path>
      <path class="st1" d="M669.6,347.7c12.7,10.8,28.4,19.6,47.1,20.5v-60.5c-9.2,8.5-10.7,12.3-34.1,24.2
      	C682.4,332.1,673.1,342.9,669.6,347.7z" id="61"></path>
      <path class="st1" d="M2383.5,296.4c3.3,4.6,12.3,16.4,19.7,24.1c23.5,24.5,27.1,28.3,52,36.2c0,0,18.9,6,24.3,8.4l0.6,0.3
      	c1.5,0.7,7.5,3.1,9.5,4.4c-0.5-0.7-0.9-1.4-1.4-2.1c-3.7-5.5-8.2-13.3-7.4-15.9c1.7-5.7,5.5-16-2.7-22.5c-0.8-0.2-21-6.3-26.4-10.6
      	c-5.8-4.7-24.2-18.5-25.4-19.6c-6.9-6.8-16.6-28.3-18.9-40.7c-1.6-8.9-5.9-16.1-7.1-22.6c-1.6-8-2.3-14.3-5-24.7
      	c-5-19,1.3-19.1-7.2-40.4c-5.3-13.4-27.2-35.1-58.3-21.9c6.8,6.6,13.9,23.3,17.1,29.6c2.1,4.2,3.9,7.8,6.3,10.6
      	c5.8,9.2,5.6,16.6,7.1,26.8c1.1,7.5,6.3,12.5,11.4,27c1.7,4.9,2.3,11,3,17.9C2375.7,271.9,2377,284.6,2383.5,296.4z" id="62"></path>
      <path class="st1" d="M3484.4,359.9c5.7,0.3,11.6,0.3,17.6,0c27.7-1.4,68.9-17.6,83.6-38.6c12.8-18.4,28.5-40.9,59.8-46
      	c-3.8-2.2-5.8-5.5-7.8-8.8c-3.9-6.4-7.5-12.5-26.8-9.5c-7.1,2.9-14,7-20.5,12.9c-10.2,9.2-17.7,17.1-30.4,34.4
      	c-10.9,14.8-29,24-53.6,27.4c-15.1,2.1-30.4,1.5-41.4,0.1c2.8,3.4,2.8,7.6,2.7,11.5C3467.4,350.5,3467.3,356.7,3484.4,359.9
      	L3484.4,359.9z" id="63"></path>
      <path class="st1" d="M3391.4,305.9c9,6.9,13.3,14.6,17.1,21.5c3.8,6.9,7.1,12.8,14.2,17.1c9.5,5.9,27,11.7,48.2,14.2
      	c-6.9-4.4-6.8-10.4-6.8-15.5c0.1-5.4,0.2-10-7.2-12.7c-18.7-3.8-23.3-11.5-29.1-21.2c-3.9-6.6-8.3-14-18-22.4
      	c-0.8,0.9-1.6,1.8-2.5,2.6C3404.8,292.6,3399.6,298.6,3391.4,305.9z" id="64"></path>
      <path class="st1" d="M2498,332.5c11.1,4.5,11.9-1.5,20.7,8.9c0,0,1.6-37-0.5-41.9L2437,299c5.7,6.9,11.6,13,16.6,17
      	c4.8,3.9,13.2,6.4,22.9,9.3c5.8,1.7,11.9,3.6,18.2,5.9C2495.9,331.6,2496.9,332,2498,332.5z" id="65"></path>
      <path class="st1" d="M925.1,295.6v44.2c14-0.2,29.3-7.8,39-12.5c5.3-2.6,30.3-28,33.5-31.7H925.1z" id="66"></path>
      <path class="st1" d="M2592.9,216.3c20.4,6.8,43,28.8,57.1,49.8c8.2,12.2,27.5,39.6,29.5,65.2c0.5-0.8,15-55.9,17-60.7
      	c-33.1-45.5-47.9-78.3-39.4-108.4c-16.4,2.8-21.8,12.6-31,30C2618.4,206.8,2611.4,213.5,2592.9,216.3z" id="67"></path>
      <path class="st1" d="M3285.4,337.1c12.2,1.6,43.6,5.2,64.6-6.3c32.6-17.8,49.4-37.2,54.9-43.6l0.1-0.1c5.3-5.1,10-13.2,14.6-21
      	c2.4-4,4.6-7.8,6.8-11.1c6.6-9.8,14-17,23.7-22.4l0,0c0.1,0,0.1-0.1,0.2-0.1c1.9-1,3.8-2,5.9-2.9c9.2-5.7,11.6-13.4,13.6-19.7
      	c0.8-2.6,1.5-4.8,2.6-6.7c0.4-0.6,0.7-1.2,1-1.8c2.1-3.7,4-7.1,8.8-9.8c-2.8,0.2-5.4,0.3-7.8,0.5c-16.2,1.2-57.2,22.2-71.2,38.8
      	c-1.7,2-4.2,6-7.3,11.2c-6.8,11.1-17.1,27.9-30.3,41.7c-11.1,11.6-26,20.4-39.8,23.6c-1.4,0.3-3,0.6-4.8,0.9
      	c-5.2,1.4-7.6,3.9-10.6,7.1c-2.5,2.6-5.3,5.5-10.1,8.4c-3.1,1.8-5.7,3-7.8,4C3287.2,330.1,3285.6,330.9,3285.4,337.1z" id="68"></path>
      <path class="st1" d="M3206.1,310.1c8.3,3.4,18.8,13.3,26.4,16.1c16.4,6.2,12,5.6,27.8,7.7c1.9,0.2,10.8-1.4,12.8-1.1
      	c0.4-7.7,36-24.6,18.5-29c-11.5,0.5-36.5-4.1-41.8-5.9l-1-0.3c-7-2.1-14.6-5.9-22-9.6c-5.2-2.6-10.6-5.3-15.8-7.4
      	c-0.1,0-0.2,0-0.2,0c0,0-8.2-3.1-12-3.7c-3-0.5-5.9-1.1-8.6-1.8c-0.3,0-0.9-0.2-0.9-0.2c-4.9-1.3-22.2-7.7-26.9-9
      	c-17.7-5-42.6-6.9-69.8-4.4c-20,1.8-63.7,2.1-65.6,2c2.1,2,11.4,10.3,12.1,12.4c1.3,3.8,7.5,4.3,12.3,8.5c6.8,5.9,6.4,4.4,10,9
      	c3.2,4.1,14.4,1.8,19.7,1.7c0,0,46.8-2.6,56-3.7C3145.7,290.2,3181.1,299.7,3206.1,310.1z" id="69"></path>
      <path class="st1" d="M725.1,230.2c-0.5,4.4-3.1,6.8-5.9,10.5c-4.4,5.8-6.5,18.3-8.6,28.5c-1.5,7.4-6.5,11.9-9.5,20
      	c-4.7,12.9-0.3,10.9-14,29.5c23-12.3,26.7-14.2,36.5-23.5c4.2-4,21.3-13.9,26.8-18.3c22.6-18.3,24.5-24,45.2-31.6
      	c0.5-11.1-0.7-21.3,0.5-31.6C768.9,224.3,737.7,232.2,725.1,230.2z" id="70"></path>
      <path class="st1" d="M3457.8,327.2c0.1,0,0.3,0.1,0.4,0.1c0.7,0.1,70.6,13.4,99-25c13-17.5,20.6-25.5,30.9-34.9
      	c18.2-16.6,39.4-19.4,58.1-22c7.5-1,14.6-2,20.6-3.8c43.3-13.1,55.6-21.8,58.3-26.8c6.7-12.6,16.6-36.4,16.8-50.6
      	c0.1-4.3,0.7-8.7,1.9-13.2c-28.3-3.6-53.6,2-63.2,13.9c-30.4,37.8-88.8,48.3-151.1,56.6c-5.6,0.7-13.5,1-21.2,1.2
      	c-8.4,0.3-17.1,0.5-22,1.4c-11.2,2.1-20.4,4.7-28,8c-2,1.2-4.2,2.4-6.7,3.4l0,0c-9,5.1-15.9,11.9-22.1,21.2c-2.2,3.2-4.4,7-6.7,11
      	c-3.4,5.7-6.8,11.6-10.5,16.4c10.2,8.8,15,16.8,18.8,23.3c4.9,8.3,8.4,14.2,20.3,18C3453.7,325.9,3455.9,326.5,3457.8,327.2z" id="71"></path>
      <path class="st1" d="M2619.6,90.7c-9.4,0-18.4,9.8-28.1,18c-6,5.1-11.8,8.9-18.4,12.5c-9.9,5.4-12.6,22.7-16.5,35
      	c-2.9,9.3-4.8,17.5-10,23.5c-1.8,2.1-5.2,6.7-8,9.5c-16.1,16.1-35.8,42.7-22.5,82.6c15.4,46.2,16.4,33.8,19.5,34.9
      	c0.3-2.8,3.6-10.2,2.5-17.8c-2-14.2-1.7-20.4,0-30.7c1.6-10.1,8.4-43.8,40.5-45.9c25.6-1.7,34.4-10,43-26.2
      	c10.1-19.1,16.8-25.2,35.5-27.5c4.5-0.6,6.5-4.4,9.1-8c4.8-6.5,9.5-8.5,7.1-21.5c-1-5.5,0.1-9.3,0-11.5
      	c-0.1-2.3,2.3-23.9-10.5-24.5c-7-0.3-14.7,0-30.2-2.5C2631.7,90.6,2620.5,90.7,2619.6,90.7z" id="72"></path>
      <path class="st1" d="M1917.4,277.7c9.8,0.4,14.8,3,21.8,8c8.8,6.3,18.7,15.6,48,23.5c11.3,3,42,10.6,41.5,2.3
      	c-0.4-7.1-1.7-30.3,0.5-37.3c-16.2,8-36.1,0.9-50.7-8c-2.7-1.7-24.1-16.8-27.3-19c-12.1-8.5-12.7-9.1-37.5-13.5L1917.4,277.7z" id="73"></path>
      <path class="st1" d="M567.1,269.7c-6.4,0-7.5-1.6-7.6,1c-0.3,14.5-2.9,14.5,0.6,20.8c0.7,1.2,5,8.3,6,10.2
      	c4.7,8.9,10.2,12.8,20.8,17c-0.5-6.1,2.2-6.8,3.7-14c-1.8-2,2.6-7.6-0.5-10.8c-3.4-3.4-6.8-7-9.2-9.6
      	C575.2,278.1,571.9,273.6,567.1,269.7z" id="74"></path>
      <path class="st1" d="M2034.6,267.7c-4.3,7.3-0.8,43.8-0.8,43.8c9.9,0,37.7-13.1,45.8-26.8c0.5-0.8,12.8-19.6,46.5-22.7
      	c24-2.2,59.9-13.8,50.6-17.1c-10.5-3.7-17.4-7.2-24.1-9.9c-16.6-6.6-17.3-14.2-21.1-14.3c-12.7-4-20.5-0.3-24,0.2
      	c-13.4,1.9-15.7,0.2-36,12.8C2060,241,2040.5,262,2034.6,267.7z" id="75"></path>
      <path class="st1" d="M2762.6,225.2c-14,0-24.8,2.2-33,10.5c-4.6,4.7-17.7,15.3-18.5,16.6c-3.1,5-11.1,28.4-12,31.8
      	c-0.5,2.1-5.8,16.2-5.8,25.9c3.5-2.6,23,1,29.3-2.6c5-2.9,5.1-8,9.5-18.5c3.5-11.1,22.7-29.7,29.5-27.6c3,0.9,33.5,3.6,33,0
      	c-1.2-8.4,4-17.9-18.9-32.9C2772,226,2766.4,225.2,2762.6,225.2z" id="76"></path>
      <path class="st1" d="M2752.1,299c4.3,2.3,77,12.2,112,1c26.5-8.5,45.9-6.6,72.1-7.8c4.2-0.2,8.7-0.4,13.6-0.6
      	c7.4-0.4,9.5-9.5,9.8-15.9c0.3-5.3-0.7-16.6-3.5-19.5c-1.8-1.9-18-6.3-31.4-5.7c-27.9,1.2-19.7-3.6-35.1,1
      	c-10.5,3.1-32.3,6.9-42.5,7.6c-7.4,0.5-24.8,9.4-32.5,8.6c-5.2-0.5-49-1.5-52-2.4c-4.9-1.5-10.8,6.6-16.4,12.5
      	c-0.8,0.8-5.4,8.4-6.1,9.2C2738.7,288.4,2750.9,298.3,2752.1,299z" id="77"></path>
      <path class="st1" d="M3228.6,277.2c3.1,1.5,18.8,12,25.5,14c0,0,20.7,6.6,25.5,7.7c15.1,3.6,41.7-3.9,43.5-4.1
      	c11.9-2.8,21.3-6.8,31.5-16.4c-22.1-13.3-28.6-19.5-38.5-22.4c-13.9-4-36.7-8.3-47.5,0c-2.7,2.1-7.7,1.9-10,4.2
      	c-4.7,4.5-8.5,9-14.5,9.4C3239.1,270,3236.8,277.1,3228.6,277.2z" id="78"></path>
      <path class="st1" d="M2977,291c11.5,2.1,25.8,3.8,43.9,3.9c13.7,0.1,29.2,1.9,27.7,0c-3.4-4.3-25-30.4-36.7-32.1
      	c0,0-12.5-5.7-17.1-6.6c-8.9-1.7-19.1-1.5-31.7-2.5c0.1,0.1,5.6,5.6,5.7,5.8c3.8,4.9-1.3,17.7-1.2,16.2
      	C2968,266.4,2962.4,287.7,2977,291z" id="79"></path>
      <path class="st1" d="M2422,279.4h90.6c-5.6-16.9-8.6-41.5-4-54.2c-9.2,2.3-19.9,6.1-30.4,10.5c-16.7,7-26.1,12.9-41.1,12.5
      	c-3.5-0.1-9.7,1-12.9,1c-3.8,0-11-1.9-14.6-2C2412.2,271.8,2421.1,278.4,2422,279.4z" id="80"></path>
      <path class="st1" d="M2364.2,277.3c-1.1-10.8-2.7-29.4-4.1-33.9c-27-10.5-39-31-45-39c-22.6,8.1-39.7,8.1-55.5,9.3
      	c-8.3,0.6-20.7,5.9-26.7,7.2c-9.8,2.3-27.4,15.1-33,20.9c-5.2,5.5-55.5,23.5-78.2,32.6C2099.2,283.6,2364.2,277.3,2364.2,277.3z" id="81"></path>
      <path class="st1" d="M1176.6,279.7l715-5.5l-1.2-67c-25.5-5-27.5-3-50.1-8.6c-1.7-0.4-3.5-0.9-5.2-1.3c-5.6-0.8-10-1.9-13.4-3.3
      	c-18.5-4.5-33.9-11.8-46.1-13.3c-43.5-5.3-61.6-10.1-74.5-18.9c-10-6.7-16.2-17.8-33.4-19.1c-53-3.9-79.2-22.3-96.6-43.9
      	c-7.3-9-20.7-28.5-29.5-35h-159c-1.8,0-25.8,30.6-43.5,39.5c-21.5,10.8-61.7,11-62,11c-4.7,0.2-23.9,5.9-28,6.5
      	c-17.8,2.6-36.8,17.7-42.5,38c-9,32-28.2,61.7-30,63.6V279.7z" id="82"></path>
      <path class="st1" d="M1080.6,282.2l63.5-1c0,0-10.7-13-20-24c-2.8-3.3-3.9-8.2-7.5-11.8c-9.1,0.7-17.5-1.8-26-2.2
      	C1089.9,247.1,1082.8,273.7,1080.6,282.2z" id="83"></path>
      <path class="st1" d="M1021.1,282.2c1.4-1.9,10.2-34,11-36.9c-55-6.4-80.1-15.5-102.6-29.1c-25.3-0.6-71.2,3.2-102.4,19
      	c-0.8,4.2,1,45.7,1.5,49.2L1021.1,282.2z" id="84"></path>
      <path class="st1" d="M821.1,284.4c-0.4-3-21-29.3-22-31.8c-20.3,7.4-35.1,18-57.5,36.1C741.5,288.8,821.1,284.4,821.1,284.4z" id="85"></path>
      <path class="st1" d="M4145.6,247.3c11.8,2.9,50.4,5.7,56,5.8c27.1,0.5,36,0.5,57.1,14.1c26.7,17.2,40,14.6,53.6,13
      	c7-4.8,0.2-17.9,3.5-23.5c-2.8,0.8-18.9-0.4-22.2-0.8c-10.5-1.2-31.8-13.8-34.9-15c-2.6-1-19.1-15-41.6-16.5
      	c-8.2-0.5-18.6-1.7-26.9-1c-7.1,0.6-15.6-0.2-23.9,2.5C4154.1,227.1,4146,246.8,4145.6,247.3z" id="86"></path>
      <path class="st1" d="M532.1,222.3c8.9,12.3,24.2,26.4,33.2,33.5c1.5,1.2,19.8,19.2,21.6,21.1c4-14.4,11.2-9.4,13.2-12.6
      	c1.1-1.7,15.4-5.1,20.5-9.2c-4.2-4.6-3.6-7.1-7.7-10.9l-3-3.5c-3.8-3.6-4.1-5.1-8.7-9c-0.9-0.8-18.9-19.2-26.8-17.9
      	c0,0-12.8,2.8-18.2,4.1C548.6,219.6,539.3,221.9,532.1,222.3z" id="87"></path>
      <path class="st1" d="M4338.9,247.3c-12.3,7.6-15.1,4.1-14.5,10.2c0.4,4.1,1.1,19.3-2.8,23.9c11.3,1.9,23.3-5.6,27.1-7.6
      	c21-11.4,38.4-41.9,39-42.8c7.6-11.2,25.1-23.9,35.5-27.7c9.8-3.5,36.2-9,40.7-9v-22.5c-19.5-1.1-25,0.3-39,4.8
      	c-14.3,4.5-18.3,4.9-33.5,17.8c-1.9,1.6-21.6,13-29.5,29C4357.6,232,4349.7,242.8,4338.9,247.3z" id="88"></path>
      <path class="st1" d="M1123.6,243.2c2.9,3,9.9,20.4,12.1,23c9.1,10.8,6.3,11.1,30.9,13.5l-0.5-40.3
      	C1157.3,246.9,1143.7,241.3,1123.6,243.2z" id="89"></path>
      <path class="st1" d="M3287.6,247.2c7.3,0,18.1,1.7,24.6,3.5c10.4,3,42.3,17.1,42.4,16.9c5.5-5.7,10-5.3,14.5-11.5
      	c-11-8.1-32.8-27-50.5-27c-3.1,0-14.6-3.3-17-3.3c-12.3-0.2-16.9-1.9-37,2.8c-12.9,3-24.6,11.4-31.5,18.1c-8.2,7.9-6,11.7-27,16.5
      	c0.2,0,28.5,0.4,35.5,0c4.7-0.3,19.6-10.3,22.5-12.5C3271,245.6,3277.7,247.2,3287.6,247.2z" id="90"></path>
      <path class="st1" d="M785.6,63.7c-14.6,17.4-12.6,34.2-16.5,58.4c-3.2,19.7,24.3,51.6,24.3,51.6c8.7,12.8,11.1,20.6,7.7,36.5
      	c-3.3,15.1-5.1,17.2,3.5,35.1c6.6,13.7,11.3,19,13.5,20.9c1.7-2.1,0.9-11.7,3.2-25.5c3.8-22.3,7-19.3,21-27c0,0,16.4-19,19.8-26
      	c1.2-2.5,4.3-34.7,6-43c3.4-16.5,25.9-29.4,42-36.4c0,0,20-11.3,21-23.6c0.1-1.6-1.2-19.4-1-21H785.6z" id="91"></path>
      <path class="st1" d="M1910.6,228.5c25.9,4.4,43.5,12.5,56,21.2c3.1,2.2,22.8,15,25.5,16.6c16.3,10,31.7,1.5,42.5-9.1
      	c5.7-5.5,17.3-16.5,19.5-19.9c3.4-5.2,7.2-6.4,19.5-14c19.5-12.1,23.3-8.8,38-10.9c3.8-0.5,25.9-1.5,31.5-1.3
      	c15.3,0.5,19-6,32.5-19c18-17.4,17.7-15.9,33-19.4c5.6-1.3,20.6-5.7,28-6c10.6-0.4,12.3-3.6,23-7c-19.8-13.1-19.4-13.4-36.5-16.9
      	c-2.4-0.3-27.9-3.9-38-1.5c0,0-34,11.3-74.5,14.5c-11.9,0.9-29.1,1.2-49.5,3c-8,0.7-41.7,4.9-51,7.3c-10.4,2.8-35.5,18.7-35.5,18.7
      	c-0.3,0.3-39.8,31.8-65.8,27.6L1910.6,228.5z" id="92"></path>
      <path class="st1" d="M4023.4,217.7c1,3.2,1.6,12.5,3.5,15c6.5,8.8,6.4,13.2,27.5,20.5c9,3.1,16.6,10.5,22.8,12c11,2.8,6.6,5.4,27,2
      	c4.9-9.6,0.6-24.1,1.2-28.8c-4.2,3.5-27.5-0.4-36.3-2.5C4038.7,227.3,4023.7,217.9,4023.4,217.7z" id="93"></path>
      <path class="st1" d="M3.3,230.2l-1.2,31c14.6-3.9,10-3.3,16.5-6.1c6.4-2.8,9.8-5,20.5-7.4c10.3-2.3,15.4-2.5,22-2.5
      	c7.5,0,18.2,1.1,26.5-2.5c18.3-8,12-6.4,21.5-16.3c0,0,9.5-9.8,13.5-13c4.7-3.8,4.8-8.1,10-13.9c-17,0-21,1.3-32.3-3.6
      	c-18,20.4-8.7,19-35.7,19.8c-13.7,0.4-22.1-1.2-30.5,2.5C26,221.8,20,227.9,3.3,230.2z" id="94"></path>
      <path class="st1" d="M4112.1,226.5c-3.3,7.6-0.9,23.8-0.5,35.8c14,1.2,24.7-14,26.6-16.6c0.8-1.1,14.3-26.8,28.2-28
      	c0,0,34.5-3.2,50.7-19.5c34.2-34.5,41.6-56.5,41.6-56.5c0.5-2.3-3.8-11.1-12.6-14.5c-4.8-1.8-10.3-1.8-13.2,3.2
      	c-2.9,12.5-30.3,39.8-30.3,39.8c-13.6,11.8-22.8,20.1-33.8,22.8c-11.2,2.7-18.4,3.1-30.7,9.8
      	C4136.3,203.8,4123.6,209.7,4112.1,226.5z" id="95"></path>
      <path class="st1" d="M2668.1,204.4c5.2,18.2,27.8,57.8,28.4,56.9c0.9-1.5,9.3-8.3,14.1-13.1c0.5-0.5,7.3-10.5,7.9-11.1
      	c-17.7-12-28.4-22.7-39-25.9C2677.2,210.5,2670.5,205.4,2668.1,204.4z" id="96"></path>
      <path class="st1" d="M3623.1,253c11,0.9,14.4,6.6,17.5,11.7c2.9,4.9,5.6,9.2,14.7,9.5c0.1,0,0.2,0,0.2,0c3.3-0.1,7-0.5,11-1.1
      	c0.2,0,0.4-0.1,0.5-0.1l0,0c32.2-5.1,83.1-25.5,96-58.1c2.5-6.2,4.4-11.8,5.9-16.7c1.8-20.5-4.9-21.9-12.7-23.4
      	c-3.9-0.8-8.3-1.7-11.4-5.1c-2.1,15.7-11.5,36.8-16.8,46.7c-4.4,8.3-24.1,17.6-60.3,28.5c-6.2,1.9-13.5,2.9-21.1,3.9
      	C3639.1,249.8,3631.1,250.9,3623.1,253z" id="97"></path>
      <path class="st1" d="M2859.7,249.7c14.8-4.4,32.2-5.1,60.4-6.3c13.6-0.6,42.8,3.3,44,3.3c19.6,0.6,29.5,3.3,41,5.5
      	c9.4,1.8,16.4,3.4,31.5,4.3c17.8,1.1,38.1-2.1,58-3.9c27.5-2.5,47.2-1.3,65.5,3.9c4.8,1.4,12.8,4.6,17,6.1c4.5,1.6,8.8-1.3,13.5,0
      	c21.5-9.1,27.3-10.2,36.5-19.1c7.3-7,16.2-15.2,30-18.5c20.5-4.8,52-2.5,55.1-2.5c11.4,0,22.7,7.1,38.9,16l1-174.5h-689.2l2.6,25.9
      	c11.8,0.6,15.9,8.6,20.1,19.7c1.1,3,1.2,4.5,1.4,6.9c0.1,2.1,0.3,4.9,1.3,10.2c2.5,14-6.8,13-12.1,20.3c-3,4.1-4.9,14.1-9.9,15
      	c-3.8,12.6,1.9,32.8,1.9,32.8c2.8,1.2,10.7,11.8,13.3,12.6c11.3,3.4,24.2,13.4,42.2,25.6c8.8-8.1,29.7-19.1,49.5-11
      	c30.7,12.5,36,29.4,37.3,38.4C2811,264.8,2849.4,252.8,2859.7,249.7z" id="98"></path>
      <path class="st1" d="M4265.6,231.8c1.8,1.1,28.4,24.8,46,21c18.2-3.9,29.5-11.4,35.8-20L4265.6,231.8z" id="99"></path>
      <path class="st1" d="M3360.3,247.8c8.5,4.8,16.3,0.6,20.4,3.6c5.2-7.4,7.3-19.9,10.8-25.5c3.2-5.3,14.1-17.7,15.9-19.9
      	c14.7-17.4,53.5-29.5,70.7-30.8c6.3-0.5,22,0.4,30,0c22.1-1,33.2-1,47.2-5.3c1.2-0.4,40-6.4,57.8-17.9c1.7-1.1,27.8-17.9,29.2-19.3
      	c11.1-11.6,26.7-25.7,44.3-30c21.8-5.2,50.7-11.7,70.2-6.3c9.2-0.2,21.1-5.2,29-5.5c9.1-5.2,7.2-3.4,14.3-9
      	c4.8-3.8,9.4-9.9,13.7-17.7h-453.4L3360.3,247.8z" id="100"></path>
      <path class="st1" d="M610,234c4.3,4.1,10.8,6.8,14.9,11.3c1.1-1.2,6.2-12.1,6.8-13.1c2.4-4.1,9.6-12,11.2-15
      	c1.9-3.5,4.3-3.5,16.3-11.6c11.7-7.9,4.5-9.5,27-9.5c6.3,0,22.6-1.6,26.5,2.3l5.4-10.5c-4.7-1.3,4.3,1.4,0,0
      	c-18.2-6.1-33.8-13.7-45.3-22.2c-34.7-25.6-80.1-32.8-116.6-27c1.9,6.1,4.9,39.2,5.9,41.9c1-0.4,37.5,7.1,37.6,7.1
      	c0.8,0.5,3.5,2.3,3.6,2.4c9.1,6.8,11.4,26.1,9.7,36.2C612.3,230.4,610,230,610,234z" id="101"></path>
      <path class="st1" d="M1090.6,236.7c27.5,8.6,72.8-6,76-9.5c2.5-2.8,22.5-43.5,25-55.7c-4.4,3.4-18.6,1.2-24,0.2
      	c-7.7-1.5-6.2,5.7-12.6,14.5c-7.7,15.2-19.6,26.9-42.4,27.4C1095.7,214.1,1091.6,232,1090.6,236.7z" id="102"></path>
      <path class="st1" d="M2412.2,241.4c3.7,0.1,8,2,11.9,2.1c3.2,0,9.3-1.6,12.9-1.5c14.4,0.3,26.7-6.6,43.1-13.4
      	c11.5-4.8,22.3-7.3,32.5-9.5c3.7-8.6,3.5-14.4,8.8-20.8v-8.9c-34.5,0.7-41.9,5.1-54,11.5c-10.3,5.5-17.3,11.7-36.3,11.1
      	c-2.1-0.1-23,1.1-28,0.6c0.7,5,1.6,11.5,2.5,16.1C2406.8,234.6,2411.3,233.1,2412.2,241.4z" id="103"></path>
      <path class="st1" d="M2189.1,240.2c8.4-5.1,19.6-12.4,24-17c5.8-6,15.2-9,26-11.4c6.2-1.4,44.2-6,66-13.7
      	c-0.5-0.8-25.8-25.3-32-29.5c-11.8,4.3-11.4,2.7-23,3.1c-7.3,0.3-18.7,2.1-24,3.3c-14.7,3.4-30.4,7.8-47.9,24.7
      	c-9.7,9.4-28.8,18.5-40.6,19.2c4.4,2.8,11.9,16.4,15.1,16.1C2168.1,233.7,2186,238.2,2189.1,240.2z" id="104"></path>
      <path class="st1" d="M869.6,187.7c17.1,1.8,60.4,18.1,64,20.3c22.3,13.5,42.9,26.3,98,32.7c2.8-9.9,1.4-16.5,5.1-24.5
      	c-2.6-0.4-43.3-9.5-53.9-11.9c-39.9-8.9-18.3-5.2-41-21c-12.5-8.7-48-21.9-69.8-24.6C871.9,162.8,870,183.4,869.6,187.7z" id="105"></path>
      <path class="st1" d="M4427.6,209.7c3.4,3.1,10.3,12.1,12.8,14.9c4.6,5.3,4.6,4.6,13,8.9c9.4,4.8,7.9,2,10.5,1.8v-33.3
      	c-4.4,0-13.1,1.2-21.5,2.6C4438.5,205.1,4435.1,205.9,4427.6,209.7z" id="106"></path>
      <path class="st1" d="M4088.1,234c9.5,3.2,22.9-21.1,24-22.7c-5.8-1.3-19-5.8-29.8-9.3c-5.5-1.8-15.8-5.5-21-7.2
      	c-10.4-3.6-23.1-7.7-33.8-13.3c0,0-21.1-5.9-41,2.8c12.2,13,22.5,18.7,29.2,22.5C4034.4,217.2,4088.1,234,4088.1,234z" id="107"></path>
      <path class="st1" d="M4439,234.2c-5.5-3.7-16.9-18-20.6-21.2c-11.5,6.3-17.7,13.9-21.7,19.9C4396.6,233.1,4439,234.2,4439,234.2z" id="108"></path>
      <path class="st1" d="M4247.4,226h102.8c0.4-0.6,35.6-37.8,38.2-39.8c-7.4-5.6-9.7-6.5-18-8c-12.6-2.3-28.1,6.9-35.8,12.8
      	c-7.5,5.7-25.7,12.5-41.8,12.5c-1.8,0-23-1.7-57.5-13.2c-13.5,13.2-17.5,15.8-31.2,23.5c3-0.2,17.8,5,26.1,7.5
      	C4240.7,224.4,4240.9,226,4247.4,226z" id="109"></path>
      <path class="st1" d="M2290.1,171.7c6.6,4.5,32.6,33.7,33.3,34.5c4.5,6.3,3,10.7,30.7,22.2c-4.2-13,1.3-29.5-6-33.7
      	c0,0-11.6-29-19.2-35.6c-11.6-10.2-25.3-25.2-52.7-35.2c-11.8-4.3-36.6-15.2-36.6-15.2c-16.2-2.7-37.7-6.3-57-2
      	c0.7,0.9,4.6,11.8,10.5,13.5c8.5,2.5,9.6,13.6,14.5,14c15.5,1.3,33.4,5.6,35.5,6C2243.2,140.2,2269,157.3,2290.1,171.7z" id="110"></path>
      <path class="st1" d="M872.1,193.2c-0.3,3-0.2,7.2-14,14.8c0,0-8.1,10.4-13.5,14.3c27.5-8.2,51.1-8.5,80.5-8.5
      	C922.9,212.4,888.8,195,872.1,193.2z" id="111"></path>
      <path class="st1" d="M3.3,138.5v83.1c15.9-2.3,17-4.7,24.8-8.2c8.7-3.8,16.1-3.7,30.5-4.2c25.9-0.8,19.5,3.9,36.5-15.3
      	c0-3.2,3.7-5-3.4-10.6C74.8,170,55.6,145,3.3,138.5z" id="112"></path>
      <path class="st1" d="M588.6,213.8c1.3,0.9,13.9,9.7,17.1,12.6c0.1-0.7,8.3-19.2,1.4-24.8c-0.2-0.2-15.3-10.1-17.5-11.4
      	c-14.4-8.3-25.4-4.4-25.4-4.4c-0.8,0.3-21.7,5.3-25.4,6c5.7,2.4,17.1,15.1,18.5,18.6c2.1,5.1-2.7,0.5,12.9-0.4
      	C580.8,208.5,581.6,207.5,588.6,213.8z" id="113"></path>
      <path class="st1" d="M739.6,224.3c10.9,1.8,14.3,0.8,42.6-10.6c0.2-0.9,11.1-4.8,11.3-5.7c0.7-3-2.6-6.2-3.3-9.7
      	c-8.5,0.1-49.3-3.2-65-7.3l-5.9,16.4c1.5,2.1,7.6,12.4,8.4,14.8C728.4,224.6,739.5,222,739.6,224.3z" id="114"></path>
      <path class="st1" d="M435.1,172.2c13.1,4.2,28.7,19.9,37.4,28c13.6,12.8,17.6,18.1,53.1,18.2c0,0,17.3-3.9,15.5-8.4
      	c-1.9-4.7,4.5-13.3-8-14c-6.1,0.2-16.5-3.1-16.5-3.1c-5.5-1.9-9.6,1.2-15.1-3.1c-4.8-3.8-11.8-6.2-15.4-9.8
      	c-4.8-4.7-16.1-16.7-22.6-20.9C453.6,152.7,438.4,162.4,435.1,172.2z" id="115"></path>
      <path class="st1" d="M3496.1,190.8c-14.2,2.3-16.5,6.4-19.7,12.1c-0.3,0.6-0.7,1.2-1.1,1.9c-0.9,1.5-1.5,3.6-2.3,6
      	c-1.4,4.5-3.1,10-7.4,15.1c5.9-1.9,12.5-3.6,19.9-5c2.7-0.5,6.3-0.8,10.4-1c13.8-1,16-3.8,18.6-7.2c3-3.9,6.4-8.2,23-11.1
      	c9.4-1.6,9.8-4.5,10.3-8.5c0.3-2.2,0.7-4.6,2.3-6.9c-14.7,2.8-35.3,3.8-53.9,4.6C3496.3,190.8,3496.2,190.8,3496.1,190.8z" id="116"></path>
      <path class="st1" d="M190.3,196c16.8,1.7,45.5,11.6,63.9,13.3c44.5,4.2,71,9,105.9-2c-4.4-1.3-1.4-5.7-2.4-7.7
      	c-2.9-5.9,0.5-8.7-3-17.3c-1.4,0.8-19.5-0.5-21,0.2c-9.6,4.5-17.4,6.8-56,2.3c-19.3-2.3-33-7.9-47.5-9.7c-0.3,0-12.2-2.7-12.5-2.8
      	c-5.2,1.1-10.6,3.6-13,7.6C201.2,185.4,204,192.4,190.3,196z" id="117"></path>
      <path class="st1" d="M3897.6,210.2c18.3,5.8,37,3.4,50.8-9.4c36-33.3,68.2-29.9,68.2-29.9c9.5,5,24,7.1,33.6,10.5
      	c-0.2-1.3-1.5-10.7-6.1-18c-3.2-4.9-6.2-7.3-17-11.5c-14-5.4-37.8-1.1-69,11.8c-5.1,2.1-12.1,10.3-17.5,14.5
      	c-4.8,3.8-16.2,7.2-21.2,7.8c-9.8,1-33.6-5.4-35.1-6c1.4,6.8-3.4,17.1-4.4,20.9C3878.4,206.5,3887.4,206,3897.6,210.2z" id="118"></path>
      <path class="st1" d="M4117.9,204.5c3.2-3.9,0.5-140.2,0.5-140.2h-287.3c-12.9,6.2-12.9,6.2-17.5,12.8c-3,4.3-5.5,7.2-8.8,12.8
      	c28.3,4.5,19.2,3.2,30.2,10.8c2.3,1.6,10.5,16,12.2,18.5c8.7-1.4,22.7-4.9,31.2-6.8c16.9-3.8,29.7-4.2,39-3.5
      	c38,3,60.8,18.8,78,37.2c14.7-3.2,29.1-1.4,37.8,2c11.6,4.5,19.4,16.2,23,21.8c5,7.8,5,12.8,6.2,21
      	C4062.9,192.5,4111.5,203.1,4117.9,204.5z" id="119"></path>
      <path class="st1" d="M3561.9,183.2c-9.5,2.8-10,6.5-10.6,10.4c-0.8,5.3-2.2,9.5-13.1,11.4c-15.3,2.7-18.3,6.5-20.9,9.9
      	c-1.2,1.6-2.4,3.1-4.5,4.5c6.1-0.2,11.9-0.5,16.3-1c61.6-8.2,119.3-18.6,148.9-55.4c1.2-1.5,2.5-2.8,4-4
      	c-10.4,0.6-16.3-3.1-21.2-6.1c-5.2-3.3-9.1-5.6-16.5-2.7c-16.6,16.7-47.6,24.5-70.3,30.1c-3.8,0.9-7.3,1.8-10.4,2.6v0
      	c0,0,0,0-0.1,0C3562.9,182.9,3562.4,183.1,3561.9,183.2z" id="120"></path>
      <path class="st1" d="M1023.6,204.7c4.5,0.7,19.9,2.3,22.7,2.8c2.1-4,11.9-24.4,26.3-30.3c11.3-4.5,20.5-6.5,28-6.5
      	c15.5,0,39.1,16.7,42,20.4c4.8-3.9,9.2-13.3,12.4-18.4v-109l-214.8,2c-0.2,1.7-1.7,16.3-2.6,20.5c2.3,2.8,13.2,15,16,18.5
      	c19.1,23.9,33.5,43.1,33.5,43.1C995,163.3,1016.3,196.7,1023.6,204.7z" id="121"></path>
      <path class="st1" d="M872.1,151.7c22.2,2.7,52.3,13.2,65.3,22.3c22.9,16,10.9,15.6,50.2,24.3c3.7,0.8,20.3,2.5,24,3.2
      	c-8.6-8.6-7.6-10.6-14.5-24.3c0,0-30-45-49-68.9c-2.2-2.7-8.6-11.9-10.5-14.3c-2.2,6.9-10.3,11-19,14.7l-20.5,10.9
      	c-14.5,6.3-6.8,2.2-19,12.5C875.5,135.3,872.6,144.5,872.1,151.7z" id="122"></path>
      <path class="st1" d="M1845.1,192c23,5.7,34.2,7.7,60,12.7c25.6,5,27.4,3.6,44.5-9.5c1.5-1.1,21-14.7,22.5-15.9
      	c13-10.4,12.6-9.6,17-18.1c4.4-8.5,5.1-26,15-31.5c-17.2,3.3-28.2,12.5-34.5,16.1c-6.2,3.5-14.9,11-21.5,15.9
      	c-16.4,12.2-20.2,13.8-39.5,14.6c-31,1.3-52.5-9.3-75.6-16.6c-6-1.9-12.1-6-17.2-7.5c5.5,6-0.3,11.4-2.2,17.5
      	c-1.5,4.7,7.4,12.1,9.5,15.5C1824.2,186.9,1838.8,190.4,1845.1,192z" id="123"></path>
      <path class="st1" d="M2401.1,207.4c5.1,0.5,18-0.2,25,0c1.9,0.1,31.4-6.4,41.3-11.7c12.4-6.6,18.6-9.7,54-10.5v-121l-229.3,2
      	c-8.9,9.3-9,12.2-14,20c-5.9,9.2-3.6,7.9-28,18.5c10.9,2.9,23,12.9,31.9,17c24.5,11.3,26.7,11.3,38.6,21.5
      	c34-8.2,51.6-0.7,60.5,8.9c15.3,16.5,11.5,10.1,18,32.1C2400,187.1,2400.9,204.8,2401.1,207.4z" id="124"></path>
      <path class="st1" d="M3837.9,164.5c1.5,7.2,4.4,16.6,7.2,20c5,5.9-0.9-0.9,18.5,12.2c1.6,1.1,11.4,6.4,12.2,3
      	c1.3-5.1,9-16.9,2.5-24.2c-2.7-2.5-9-12.2-11-14.6C3858.7,162.9,3849.9,164.3,3837.9,164.5z" id="125"></path>
      <path class="st1" d="M375.6,166.1c-9.2,7.1-13,20-9.5,27c2.5,5.1,10.4,2.6,18,0c11.3-4.8,15.2-6,21.5-13.1
      	c2.1-2.3,10.9-9.4,18.5-13.9c12.4-7.4,20.3-14.1,33-17c11.7-4,13.9-8.3,25-10.6c-8.2-12.5,2.3-2.5-4.4-6.3
      	c-2.4-1.3-11.8-8.2-14.6-10.1c-13.2,3.9-18.5,6-18.7,6l-10.3,4.1c-6.7,2.5-20.3,3.9-34.4,16.9C394.8,153.6,382.7,161.3,375.6,166.1
      	z" id="126"></path>
      <path class="st1" d="M4142.6,136.5V191c1-0.6,14.3-2.4,25.5-5.1c6.4-1.6,14.3-7.1,21.9-13.2c0.1-0.1,0.1-0.2,0-0.2
      	C4184.8,170,4164.1,155.7,4142.6,136.5z" id="127"></path>
      <path class="st1" d="M4242.1,183.2c32.4,10.7,33.9,11.1,48,11c1.6,0,35-6.7,42-12c7-5.3,23.2-15.9,38-13.2
      	c9.2,1.6,21.3,6.2,29.5,12.5c8.1-5.8,5.8-4.2,16.2-7.5c5-1.6,10.8-7,15.5-8c-7.6-6-24.8-18.2-36.8-21.2c-16-4.1-48.2-4.4-66.5,7.8
      	c-18.3,12.1-37.3,12.3-66.8,4.5C4255.7,167.6,4251.4,174.5,4242.1,183.2z" id="128"></path>
      <path class="st1" d="M3.3,132.2c53.6,6.6,73.2,34.8,90.6,48.5c7.5,5.9,14.7,6,23.8,10.1c11.9,5.4,22.3,2.3,41.2,2
      	c4.9-0.1,11.6,0.4,16.8,0c2.2-0.2,8.5-2,8.5-2c16.4-8.4,10.5-8.6,14-16.3c2.3-5.1-4.5-9-10.5-9.1c-5.3,0-14.2-0.3-19,0
      	c-11.3,0.7-16.3,4.2-28.5,0c-4.6-1.6-14.4-1.3-19-4.2c-36.1-22.2-68.7-47.8-119-57.1L3.3,132.2z" id="129"></path>
      <path class="st1" d="M733.9,189.1c16.1,4.3,27.4-0.2,42.8,1c10.7,0.8,8.6,0.7,16.8,0.7c-13-8.6-12.9-21.3-10.8-27.1
      	c-20.6-1.2-30.7,0.6-49.9-5.6c-18-5.7-32-12.9-40.6-20.6c-19.5-17.7-59.9-36-96.5-35.3c-4.5,0.1-38.4-0.5-56.8,3
      	c5.2,6,12,13.2,15.9,21.8c1.4,3.1-6.9,2.5-6,5.1c37.4-6,90.2,4.4,126.1,30.8c11.2,8.2,26.5,15.7,44.4,21.7c0,0,0,0,0,0
      	C723.1,186,733.9,189.1,733.9,189.1z" id="130"></path>
      <path class="st1" d="M512.6,185.7c17.9,5.5,43.4-1.9,43.5-2c-1.1-2.9-3.4-34.3-3.5-34.5c-1-2.9-10.9-21.1-16.5-27.1l-3-6.4
      	c-1.9-2-12.9-11.9-14-13.5c-2.2-3.2-17.9-21.6-21.5-38.5h-55c1.8,5.7,5,28.1,12.5,37.4c8.3,10.3,19.6,18.8,26.6,23.8
      	c2.9,2,5.5,3.5,8,4.9c7,4,16.3,22.1,16.5,22.4C506.4,152.5,510.5,178.7,512.6,185.7z" id="131"></path>
      <path class="st1" d="M2530.9,64.2v122c4-4.5,7.5-7.7,10.8-11c2.7-2.7,5.3-19.5,7-21.5c4.7-5.5,6.7-15.5,9.5-24.5
      	c4.1-13,9.9-11,21-17c6.3-3.4,14.3-10.1,20.2-15c11.3-9.4,21.4-11.9,33.3-10c14.2,2.3,11.8-1.9,19-1.5l0.5-21.5H2530.9z" id="132"></path>
      <path class="st1" d="M467.1,154.2c5.6,3.9,20.3,17.9,24.6,22.1c3.6,3.5,10.1,7.6,14.5,9.4c-1.6-6.4,0-10.2,0-15.4
      	c0-7.6-7.2-15.2-12.2-23.8c-11.8,2.5,0.1-3.3-11.9,0.7l-6,1.9C475,149.4,468.3,153.9,467.1,154.2z" id="133"></path>
      <path class="st1" d="M190.3,159.2c4.8,0.2,13.2,0.2,17.4,2.1c9,4.2,16.3,8.3,25,9.4c14.6,1.9,29.6,3.6,48.5,9.1
      	c36.6,10.5,92.2-16.7,94.5-18.5c-7-2-4.2-1.6-22-13.8c-2-1.4-3.7-2.6-5.4-3.8c-35.9-24.6-54.7-21.5-55.2-21.5
      	c-8.7,0.2-15.2-0.3-21.6,3c-6.9,3.5-11.8,8.5-35.9,15.4c-6.3,1.8-16,6.5-20.5,7.7C200.7,152.1,198,151,190.3,159.2z" id="134"></path>
      <path class="st1" d="M3898.1,181.2c13.3,2.9,15.7,2.2,24.2,0.8c4.7-0.8,8.3-1.1,13-4.8c3.2-2.5,10.8-10.8,14.1-13
      	c-21-11.1-26.1-11.9-38.3-12.2c-1,0-27.2,2.8-39.2,5.8c-1,0.2,5.6,11.2,6.8,13.4C3879.9,173.6,3896.4,180.9,3898.1,181.2z" id="135"></path>
      <path class="st1" d="M1783.8,177c8,1.5,13.5,0,23.3,2.3c-0.1-0.2-2.2-13.4-0.5-18.7c2.8-8.8,6.3-9.4-10-14.9
      	c-3.7-0.9-12.7-3.2-15-3.5c-14.7-1.5-20.1-6.8-30.5-9.1c6.5,6.1,4.9,16.7,5.9,22.5C1758.5,164.3,1764.6,171.9,1783.8,177z" id="136"></path>
      <path class="st1" d="M3746.8,152.3c2.2,5.6,2.8,11.6,7.9,12.7c6.4,1.3,8,2.1,16.2,2.1c1.7-7.6,4.1-20.5,5.5-25.2
      	c3.5-11.7,14.2-20.3,19-23c8.2-4.6,20.8,0.5,22.5,1.2c7.4,1.8,10.4,1.2,22.8-0.5c-1.4-2.1-9.3-17.4-11.2-18.8
      	c-10-7-19.2-9-40.2-7.5C3769.9,94.9,3743.8,127.2,3746.8,152.3z" id="137"></path>
      <path class="st1" d="M1201.6,106.2c-19.4,14.5-35,19-38.5,56.5c5,6.3,23.2,7.4,28.5,4.5c8-4.3,13.6-15.3,16.5-26.5
      	c1.3-5.2,15.8-14.5,20.5-19.5c13.5-14.5,49.7-11.8,52-12c-1.9-2-2.7-23.4,2.5-28c-4.6,0.5-33,3.5-37,3.5
      	C1246.1,84.7,1213.7,97.2,1201.6,106.2z" id="138"></path>
      <path class="st1" d="M1555.6,63.7c7.5,6.3,14.6,21.5,21,29.5c16.9,21.1,39.5,37.2,91,41c18.1,1.4,26.8,15.6,36.8,22.3
      	c12.4,8.4,11.8,7.9,52.6,13.2c-8.5-5.3-8.9-9.6-9.9-16c-1.2-7-0.7-19.2-12-26c-9.2-4.9-8.5-8-16-10.6
      	c-19.3-6.6-18.1-13.1-29.5-16.9c-22.7-7.5-22.5-10-38.5-16.5c-4.9-2-17.7-15.7-22-20H1555.6z" id="139"></path>
      <path class="st1" d="M1919.1,168.5c14.9,1.2,32.1-17.3,47.5-28.8c6.7-5,23.1-10.9,29.5-14.5c9-5.1,19.9-3.5,50-8.1
      	c0,0,48.9-4.2,74.8-6.9c24.2-2.6,48.3-6.8,55.7-8.5c20.8-4.9,44.7-0.9,62,2c25.9-11.4,21.4-5.4,27.5-15c3.9-6.2,11-10,15.9-22.1
      	l-362.9-5.2V168.5z" id="140"></path>
      <path class="st1" d="M4142.6,130.5c11.9,4.1,16.7,12.4,23.1,19.2c3.7,4,29.6,16.5,32.7,17.5c3.4-2.8,17.4-21.6,21.2-26.5
      	c-0.5-0.2-30.8-13.5-34.9-18.8c-8.4-10.9-19.9-32.5-42.1-37.2V130.5z" id="141"></path>
      <path class="st1" d="M1642.1,63.7c6,12.5,23,18.6,31,22.3c25.1,11.5,10.1,2.8,40.5,22.2c10.4,6.6,8.8,1.5,25,15.3
      	c5.5,4.7,127,36.7,156.5,42.5l-3.5-102.3H1642.1z" id="142"></path>
      <path class="st1" d="M4463.9,165.2V66l-171.7-1.8c-11.9,7.9-17.1,15-19.8,38.5c-0.9,8-1.3,14-3.2,25c-1.1,6-0.8,17.3-3.5,22.9
      	c28.4,7.4,41.9,4.9,59.5-6.7c19.2-12.7,57.2-11.7,73.8-7.5c14.5,3.7,37.2,26,41.5,29.5C4444,165.4,4459.7,165.2,4463.9,165.2z" id="143"></path>
      <path class="st1" d="M2043.3,124.2c-25.9,5-30.7,5.5-39.2,15.5c-3.8,4.4-3.4,16.7-8,22.5c4.8-2.8,38.9-7.3,47.1-8
      	c20.4-1.8,29.9-4.6,41.8-5.5c40.2-3.2,33.2-0.8,70-9.5c0,0,37.1-6.3,44.8-6c-2.5-1.9-3.5-5.3-10.8-7.5c-6.8-2-18.4-15.6-19.5-17
      	c-8.2,1.7-17.8,3.8-41,6.3C2102.7,117.8,2043.3,124.2,2043.3,124.2z" id="144"></path>
      <path class="st1" d="M129.6,155.1c10.6,3.2,19,6.8,29.2,6.1c4.6-0.3,12.7-6.1,17.8-6.1c9.5-10.9,12.1-7,28-11.1
      	c4.5-1.2,22-6.4,28-8.8c-9.5-6.8-24.3-11-28-11c-10.5,0-11.5-6.5-14.4-8.6c-5.7,1.5-9.1,3.3-14.1,6.1
      	C158.3,131.6,143.5,137.7,129.6,155.1z" id="145"></path>
      <path class="st1" d="M3918.1,146c12.7,0.4,13.1,1.8,36.2,14.3c1.3-0.7,21.6-10.5,31-12.8c-17.1-17-39.8-29.2-65.8-32.2
      	c-8.5-1-25.9,0-41.8,3.5c-9,2-24.8,4.9-24.8,4.9c-14.1,2.2-21.7,3.6-30,1.6c0,0-17.8-1.6-23.5,0c-9,2.5-14.8,14.5-16.5,21.3
      	c18.1,6.8,32.4,11,47.5,11.3c13.9,0.3,23.1-1.6,32.8-3.9c1.9-0.4,22.4-6.1,24.2-6.6C3899,144.6,3917.1,146,3918.1,146z" id="146"></path>
      <path class="st1" d="M2.1,97c51.1,9.4,67,29.7,102.2,51.3c4,2.5,12.4,5.3,16.3,6.8c14.5-18.4,29.7-25.8,48.3-36.1
      	c9.3-5.2,26.8-10.5,38.2-12.7c11.7-2.3,24.6-9.3,39.8-16.1c23.2-10.3,31.2-9.6,49.7-9.5c10.3-2.9,13.7-0.2,20-4.5
      	c5.3-3.7-1.2-9.6,7-12.5H3.3L2.1,97z" id="147"></path>
      <path class="st1" d="M727.6,145.7c17.9,5.6,23.3,6.9,42.5,8.2c-0.4-0.6-12.9-16.5-9.5-37.7c3.9-23.8,9-34.8,16-52.5h-49V145.7z" id="148"></path>
      <path class="st1" d="M315.6,119.7c20.2,4.1,23.3,13.1,34.6,21.2c1.6,1.2,3.4,2.4,5.3,3.7c19.7,13.6,21.9,9.3,26.1,10.4
      	c1.8-1.5,4.4-3,6-4.4c6.9-6.3,3.6-7.7,12.1-12.3c-9.4-3.3-6.7-4.9-18.8-13.8c-2.8-2-5.3-4.3-7.9-6.8c-8.7-8-35.7-28.1-58.3-30.6
      	c-27.9-3.1-35.4-4.2-62.5,7.5c10,0.1,15.6,15,19.4,19.9c3.5,4.5,17.8,0.1,26.1,1C300.7,115.5,312.9,119.7,315.6,119.7z" id="149"></path>
      <path class="st1" d="M3663.4,140c4,3.8,8.8,4.3,12.5,6.6c5.8,3.6,8-4.8,21.8-7.8c14.7-7.7,28.5-8,47.6-5.5
      	c3.6-11.5,7.5-21,15.4-29.7c-19.3-8.9-57.1,0.6-74,4.7c-16.7,4-21.5,14-32.2,25.2C3655,133.4,3662.8,140,3663.4,140z" id="150"></path>
      <path class="st1" d="M600.1,97.2c36.6,0,74.8,20.1,94.2,37.8c7.9,7.1,5.9,0.3,22.3,5.7V68.6l-207.6-4.8c3.3,14.8-1.9,11.5,3.3,14.8
      	c0.8,0.5,8.8,14.8,17.6,18.5c8.8,3.7,21.1,0.4,27.6,0.2C558.7,97.2,586.9,93.4,600.1,97.2z" id="151"></path>
      <path class="st1" d="M4142.6,77.7c23.6,4.9,32.9,12.2,43.2,30.5c6.5,11.6,38.1,24.4,38.8,24.7c5.6-8.2,5.2-27.6,5.6-38.8
      	c0.5-16,2.7-22.3,7.6-30h-95.2V77.7z" id="152"></path>
      <path class="st1" d="M1169.6,63.7v61.5c2.8-5.7,18.7-16.9,28-24c11.6-8.8,33.4-17,33.5-17c6.5,0,47-10,52-20.5H1169.6z" id="153"></path>
      <path class="st1" d="M4262.2,129.6c1.9-10.6,2.2-25.1,3.1-32.9c0.8-6.4,4.3-25.4,11.8-32.5h-31c-15.4,14-9.6,43.5-10.2,57.8
      	C4237.9,120.3,4259,123.7,4262.2,129.6z" id="154"></path>
      <path class="st1" d="M323.6,80.7c3.3,0.2,9,6.3,12.5,7.5c19.4,6.9,30,18.8,39.1,27.1c2.6,2.4,5,4.6,7.7,6.5
      	c13.3,9.8,11.8,10.8,28.7,10.1c2.7-1.2,17.3-2.9,20-3.9c10.8-4,13.2-8.8,25.5-12.5c-6.4-5-2.5-3.1-10-12.4
      	c-8.5-10.5-13.5-34.7-15-39.5h-65c-15.6,2.7-25.2,2.9-33,8.2C329.7,75,329.8,78.1,323.6,80.7z" id="155"></path>
      <path class="st1" d="M247,132.5c5.8-2.4,10-3.5,13.2-5.2c4.4-2.2,6.8-6.8,11.4-7.7c-4-2.2-10.1-10.3-12.4-13.3
      	c-4.9-6.4-9-8.6-17-7.1c-12.1,4.5-14.8,7.1-24.5,9c-3.1,0.6-10.1,5.7-13,6.4c4.5,2.9,12.8,10.6,20.3,10.6
      	C228.5,125.2,237.1,125.4,247,132.5z" id="156"></path>
      <path class="st1" d="M1288.6,94.5c0.4,4.2,2.9,13.8,7.5,13.8c0.9,0,14.6,1.9,35.5-8.5c17.3-8.7,21.2-11.4,29-18.5
      	c2.3-2.1,12-17.5,5.8-17.5h-39.2c-8.5,6.7-32.4,13-32.5,13C1294.1,76.8,1288,87.5,1288.6,94.5z" id="157"></path>
      <polygon class="st1" points="3997.6,55.7 4463.9,55.7 4463.9,0 3998.1,0 	" id="158"></polygon>
      <polygon class="st1" points="3436.6,55.7 3986.5,55.2 3986.5,0 3436.1,0 	" id="159"></polygon>
      <polygon class="st1" points="3359.6,55.7 3428.9,55.7 3428.9,0 3360.2,0 	" id="160"></polygon>
      <polygon class="st1" points="3351.6,55.7 3352.1,0 2808.1,0 2810.7,55.7 	" id="161"></polygon>
      <rect x="2263.1" class="st1" width="535.5" height="55.7" id="162"></rect>
      <polygon class="st1" points="2189.1,55.7 2256.1,55.7 2257.1,0 2189.1,0 	" id="163"></polygon>
      <rect x="1644.6" y="0" class="st1" width="538" height="55.7" id="164"></rect>
      <polygon class="st1" points="1635.1,55.7 1636.1,0 1096.6,0 1096.6,55.2 	" id="165"></polygon>
      <polygon class="st1" points="1021.1,55.2 1090.6,55.2 1090.1,0 1021.1,0 	" id="166"></polygon>
      <polygon class="st1" points="478.1,53.7 1014.6,55.2 1015.1,0 478.1,0 	" id="167"></polygon>
      <polygon class="st1" points="3.3,54.7 467.1,54.7 467.1,0 3.3,0 	" id="168"></polygon>
</svg>